<?xml version="1.0" standalone="no"?>
<!DOCTYPE svg PUBLIC "-//W3C//DTD SVG 20010904//EN"
 "http://www.w3.org/TR/2001/REC-SVG-20010904/DTD/svg10.dtd">
<svg version="1.0" xmlns="http://www.w3.org/2000/svg"
 width="127.000000pt" height="127.000000pt" viewBox="0 0 127.000000 127.000000"
 preserveAspectRatio="xMidYMid meet">
<metadata>
Created by potrace 1.11, written by Peter Selinger 2001-2013
</metadata>
<g transform="translate(0.000000,127.000000) scale(0.100000,-0.100000)"
fill="#000000" stroke="none">
<path d="M518 1137 c-125 -29 -248 -116 -317 -227 -55 -86 -51 -91 36 -48 43
20 96 40 118 44 22 3 43 8 48 11 4 2 7 2 7 -1 0 -3 -21 -17 -47 -30 -118 -59
-261 -189 -322 -291 -43 -71 -52 -144 -23 -190 19 -30 82 -67 136 -81 27 -6
28 -6 16 15 -10 20 -31 121 -25 121 2 0 14 -24 29 -54 54 -110 192 -226 311
-262 179 -53 373 -4 507 129 51 51 118 148 118 172 0 3 -26 -8 -57 -24 -103
-51 -242 -84 -148 -35 80 43 145 92 226 173 125 126 166 238 115 316 -18 28
-74 59 -122 68 l-32 6 14 -46 c25 -82 16 -92 -21 -23 -63 115 -164 200 -295
246 -61 21 -202 27 -272 11z m105 -76 c28 -11 52 -61 42 -91 -4 -12 -20 -30
-37 -40 -24 -14 -36 -16 -59 -8 -67 23 -66 116 1 141 22 8 26 8 53 -2z m294
-207 c2 -7 -4 -19 -13 -29 -17 -16 -18 -16 -30 0 -7 9 -10 23 -7 32 6 16 44
14 50 -3z m-507 -149 c17 -20 5 -61 -21 -68 -27 -7 -61 26 -52 50 13 35 51 44
73 18z m390 -55 c26 -26 25 -55 -1 -81 -34 -34 -99 -6 -99 43 0 24 35 58 60
58 11 0 29 -9 40 -20z m-227 -261 c9 -12 17 -36 17 -55 0 -41 -42 -84 -82 -84
-37 0 -78 38 -84 78 -4 27 0 38 26 63 27 27 36 31 68 26 20 -4 45 -16 55 -28z"/>
</g>
</svg>
